<?xml version="1.0" standalone="no"?>
<!DOCTYPE svg PUBLIC "-//W3C//DTD SVG 20010904//EN"
 "http://www.w3.org/TR/2001/REC-SVG-20010904/DTD/svg10.dtd">
<svg version="1.0" xmlns="http://www.w3.org/2000/svg"
 width="273.000000pt" height="273.000000pt" viewBox="0 0 273.000000 273.000000"
 preserveAspectRatio="xMidYMid meet">
<metadata>
Created by potrace 1.14, written by Peter Selinger 2001-2017
</metadata>
<g transform="translate(0.000000,273.000000) scale(0.100000,-0.100000)"
fill="#000000" stroke="none">
<path d="M613 2562 c-98 -35 -169 -99 -239 -214 -44 -71 -55 -125 -28 -135 13
-5 30 6 66 48 49 54 49 54 106 53 31 -1 96 -13 143 -27 125 -39 213 -49 306
-36 43 6 85 15 95 20 23 12 68 11 68 -1 0 -6 -18 -34 -39 -63 -57 -75 -117
-194 -131 -257 -7 -30 -13 -121 -15 -201 -1 -81 -5 -151 -9 -158 -4 -6 -28
-11 -54 -11 -163 0 -278 -56 -306 -147 -7 -22 -4 -23 41 -23 80 -1 201 -27
246 -53 62 -37 111 -109 111 -166 l1 -46 -68 4 c-85 4 -156 -13 -190 -45 -37
-34 -34 -49 16 -64 147 -44 193 -74 235 -154 38 -73 36 -157 -5 -247 -70 -152
-163 -262 -320 -380 -51 -38 -93 -76 -93 -84 0 -28 38 -26 91 6 87 51 280 145
334 162 119 38 226 51 425 50 183 0 201 -2 285 -27 111 -33 253 -101 325 -155
30 -23 63 -41 73 -41 11 0 88 70 188 171 138 141 166 175 159 189 -18 33 -38
30 -77 -11 l-38 -40 -90 51 c-309 173 -515 200 -797 106 -80 -27 -108 -32
-108 -18 0 12 118 151 209 247 151 158 197 241 237 430 22 104 22 389 0 575
-21 180 -21 399 0 471 23 78 90 141 179 168 37 12 78 21 92 21 20 0 24 4 21
23 -3 20 -9 22 -67 25 -143 7 -335 -62 -427 -155 -101 -101 -140 -242 -131
-468 3 -71 13 -222 23 -335 14 -175 15 -225 4 -340 -23 -260 -49 -349 -144
-495 -71 -109 -220 -265 -237 -248 -10 10 2 39 54 140 190 372 204 451 163
930 -38 446 -34 568 24 685 42 84 63 113 148 199 41 42 70 79 64 83 -6 3 -44
-12 -85 -34 -78 -42 -205 -80 -268 -80 -20 0 -81 16 -136 36 -182 66 -218 75
-298 80 -62 4 -92 1 -132 -14z"/>
</g>
</svg>
